<svg width="30" height="30" viewBox="0 0 30 30" fill="none" xmlns="http://www.w3.org/2000/svg">
<path d="M24.668 9.72656C24.668 4.3634 20.3309 0 15 0C9.66911 0 5.33203 4.3634 5.33203 9.72656C5.33203 14.7613 9.20059 18.9086 14.1211 19.3542V30H15.8789V19.3542C20.7994 18.9086 24.668 14.7613 24.668 9.72656ZM15 17.6367C10.6384 17.6367 7.08984 14.0881 7.08984 9.72656C7.08984 5.33249 10.6384 1.75781 15 1.75781C19.3616 1.75781 22.9102 5.33249 22.9102 9.72656C22.9102 14.0881 19.3616 17.6367 15 17.6367Z" fill="black"/>
<path d="M15 9.76044L12.3759 5.33203H10.6055V14.1211H12.3633V8.75885L15 13.2083L17.6367 8.75885V14.1211H19.3945V5.33203H17.6241L15 9.76044Z" fill="black"/>
</svg>
