<svg width="40" height="40" viewBox="0 0 40 40" fill="none" xmlns="http://www.w3.org/2000/svg">
<g clip-path="url(#clip0)">
<path d="M20.0066 9.72998C14.335 9.72998 9.74332 14.3266 9.74332 19.9933C9.74332 25.665 14.34 30.2566 20.0066 30.2566C25.6783 30.2566 30.27 25.66 30.27 19.9933C30.27 14.3216 25.6733 9.72998 20.0066 9.72998ZM20.0066 26.655C16.325 26.655 13.345 23.6733 13.345 19.9933C13.345 16.3133 16.3266 13.3316 20.0066 13.3316C23.6866 13.3316 26.6683 16.3133 26.6683 19.9933C26.67 23.6733 23.6883 26.655 20.0066 26.655Z" fill="black"/>
<path d="M28.2467 0.126621C24.5667 -0.0450457 15.4517 -0.0367123 11.7683 0.126621C8.53168 0.278288 5.67668 1.05995 3.37501 3.36162C-0.471654 7.20829 0.0200126 12.3916 0.0200126 19.9933C0.0200126 27.7733 -0.413321 32.8366 3.37501 36.625C7.23668 40.485 12.495 39.98 20.0067 39.98C27.7133 39.98 30.3733 39.985 33.0983 38.93C36.8033 37.4916 39.6 34.18 39.8733 28.2316C40.0467 24.55 40.0367 15.4366 39.8733 11.7533C39.5433 4.73162 35.775 0.473288 28.2467 0.126621ZM34.0717 34.08C31.55 36.6016 28.0517 36.3766 19.9583 36.3766C11.625 36.3766 8.28335 36.5 5.84501 34.055C3.03668 31.26 3.54501 26.7716 3.54501 19.9666C3.54501 10.7583 2.60001 4.12662 11.8417 3.65329C13.965 3.57829 14.59 3.55329 19.935 3.55329L20.01 3.60329C28.8917 3.60329 35.86 2.67329 36.2783 11.9133C36.3733 14.0216 36.395 14.655 36.395 19.9916C36.3933 28.2283 36.55 31.59 34.0717 34.08Z" fill="black"/>
<path d="M30.6767 11.7234C32.0012 11.7234 33.075 10.6497 33.075 9.32509C33.075 8.00053 32.0012 6.92676 30.6767 6.92676C29.3521 6.92676 28.2783 8.00053 28.2783 9.32509C28.2783 10.6497 29.3521 11.7234 30.6767 11.7234Z" fill="black"/>
</g>
<defs>
<clipPath id="clip0">
<rect width="40" height="40" fill="white"/>
</clipPath>
</defs>
</svg>
